<svg width="580" height="400" xmlns="http://www.w3.org/2000/svg">
 <!-- Created with SVG Editor - http://github.com/mzalive/SVG Editor/ -->

 <g>
  <title>background</title>
  <rect fill="none" id="canvas_background" height="402" width="582" y="-1" x="-1"/>
  <g display="none" overflow="visible" y="0" x="0" height="100%" width="100%" id="canvasGrid">
   <rect fill="url(#gridpattern)" stroke-width="0" y="0" x="0" height="100%" width="100%"/>
  </g>
 </g>
 <g>
  <title>Layer 1</title>
  <g stroke="null" id="svg_5">
   <path stroke="null" id="svg_4" fill="#ffffff" d="m17.692373,32.988464c-4.738958,0 -9.185473,-1.800016 -12.520623,-5.068265c-3.335109,-3.268332 -5.17175,-7.62619 -5.17175,-12.270389c-0.000709,-3.20384 0.904494,-6.345166 2.615144,-9.075365c1.710642,-2.730199 4.159812,-4.942455 7.07563,-6.391218c0.30003,-0.149867 0.638409,-0.209823 0.972912,-0.172373c0.334585,0.037442 0.65045,0.170616 0.908255,0.382905c0.257722,0.212289 0.446004,0.494283 0.541258,0.81079c0.095254,0.3165 0.093275,0.653477 -0.005691,0.968879c-0.832052,2.633782 -0.913863,5.440317 -0.236527,8.116333c0.677336,2.676024 2.088005,5.119727 4.079601,7.067119c1.429308,1.411082 3.129945,2.530298 5.003525,3.292908c1.87358,0.762611 3.882907,1.153442 5.911698,1.149813c1.552025,0.001237 3.095308,-0.226961 4.577892,-0.676676c0.321885,-0.097069 0.66579,-0.099048 0.988747,-0.005691c0.32304,0.093357 0.610864,0.277845 0.827433,0.530454c0.216652,0.252692 0.352564,0.562288 0.390748,0.890194c0.038184,0.327823 -0.023009,0.659522 -0.175993,0.953449c-1.478378,2.857543 -3.735779,5.257784 -6.521654,6.934175c-2.785958,1.676474 -5.991365,2.563616 -9.260604,2.562956l0,0zm-8.062793,-30.255114c-2.261087,1.348214 -4.128869,3.245463 -5.422685,5.508216c-1.293808,2.262786 -1.969848,4.814444 -1.962731,7.408244c0,8.347813 6.93001,15.139395 15.448209,15.139395c2.646747,0.00701 5.250526,-0.655563 7.559471,-1.923475c2.308945,-1.267912 4.244955,-3.098359 5.620657,-5.314194c-1.313766,0.297968 -2.657963,0.448148 -4.006531,0.447571c-2.323625,0.004371 -4.624983,-0.443035 -6.770965,-1.316157c-2.145982,-0.873205 -4.093868,-2.154806 -5.731003,-3.770746c-2.126849,-2.080335 -3.677554,-4.657476 -4.505977,-7.488134c-0.82834,-2.830658 -0.906935,-5.821565 -0.228445,-8.690308l0,-0.000412z"/>
  </g>
 </g>
</svg>